<?xml version="1.0" encoding="utf-8"?>
<!-- Generator: Adobe Illustrator 24.3.0, SVG Export Plug-In . SVG Version: 6.00 Build 0)  -->
<svg version="1.1" id="Layer_1" xmlns="http://www.w3.org/2000/svg" xmlns:xlink="http://www.w3.org/1999/xlink" x="0px" y="0px"
	 viewBox="0 0 197.6 42.5" style="enable-background:new 0 0 197.6 42.5;" xml:space="preserve">
<style type="text/css">
	.st0{fill:#FFFFFF;}
</style>
<g id="Layer_2_1_">
	<g id="Layer_1-2">
		<path class="st0" d="M22.6,33.2H0V0.5h6.7V27h15.9C22.6,27,22.6,33.2,22.6,33.2z"/>
		<path class="st0" d="M67.5,15.4c-0.8-0.2-1.6-0.3-2.4-0.3c-3.4,0-6.5,2.2-6.5,7.8v10.3h-6.3V9.8h5l0.8,3.2h0.5
			c1.6-2.4,4.3-3.9,7.3-3.7h1.7L67.5,15.4L67.5,15.4z"/>
		<path class="st0" d="M101.6,33.2h-6.2V0h6.2V33.2z"/>
		<path class="st0" d="M184.4,21.5c0,7.5-5,12.2-11,12.2c-3,0-5.2-1.2-6.4-2.9v11.7h-5.9V9.8h4.6l0.7,2.7h0.6c1.6-2.1,4-3.2,6.6-3.1
			C179.5,9.4,184.4,14.1,184.4,21.5z M178.4,21.5c0-4-2.4-6.7-5.8-6.7s-5.6,2.8-5.6,6.7s2.2,6.7,5.6,6.7S178.4,25.5,178.4,21.5
			L178.4,21.5z"/>
		<path class="st0" d="M145.6,9.4c-3-0.2-5.9,0.8-8.2,2.6c-0.4,0.4-6.1,5.7-6.1,5.7s-5.7-5.4-6.1-5.7c-5.2-4.2-12.9-3.4-17.1,1.8
			s-3.4,12.9,1.8,17.1c4.4,3.6,10.7,3.6,15.2,0.1c0.5-0.4,15.7-14.6,15.7-14.6c1.2-1,2.7-1.5,4.2-1.6c3.6,0,6.6,2.8,6.8,6.4
			c0.1,3.7-2.7,6.8-6.4,6.9c-1.6,0.1-3.2-0.5-4.4-1.5l-2.2-2.1c-1-1-2.7-1-3.7,0l0,0c-1.1,1-1.2,2.8-0.1,3.9l0.1,0.1l2.3,2.1
			c5.1,4.4,12.8,3.8,17.1-1.3c2-2.4,3.1-5.5,2.9-8.7C156.7,14.6,151.7,9.7,145.6,9.4z M121.7,26.7c-1.2,1-2.7,1.5-4.2,1.5
			c-3.7,0-6.7-3-6.7-6.7s3-6.7,6.7-6.7c1.5,0,2.9,0.5,4.1,1.4l5.7,5.3L121.7,26.7z"/>
	</g>
</g>
<path class="st0" d="M85.4,9.8v2.4C84.2,10.5,82,9.3,79,9.3c-6,0-11,4.7-11,12.2c0,7.4,4.9,12.1,10.7,12.1c3.4,0,5.4-1.5,6.6-3.1H86
	l0.7,2.7h4.6V9.8H85.4z M79.8,28.2c-3.4,0-5.7-2.8-5.7-6.7s2.4-6.7,5.7-6.7c3.4,0,5.6,2.8,5.6,6.7S83.2,28.2,79.8,28.2z"/>
<path class="st0" d="M41.8,9.8v2.4c-1.2-1.7-3.4-2.9-6.4-2.9c-6,0-11,4.7-11,12.2c0,7.4,4.9,12.1,10.7,12.1c3.4,0,5.4-1.5,6.6-3.1
	h0.6l0.7,2.7h4.6V9.8H41.8z M36.2,28.2c-3.4,0-5.7-2.8-5.7-6.7s2.4-6.7,5.7-6.7c3.4,0,5.6,2.8,5.6,6.7S39.6,28.2,36.2,28.2z"/>
</svg>
